<?xml version="1.0" encoding="utf-8"?>
<!-- Generator: Adobe Illustrator 27.5.0, SVG Export Plug-In . SVG Version: 6.00 Build 0)  -->
<svg version="1.1" xmlns="http://www.w3.org/2000/svg" xmlns:xlink="http://www.w3.org/1999/xlink" x="0px" y="0px"
	 viewBox="0 0 1100 800" style="enable-background:new 0 0 1100 800;" xml:space="preserve">
<g id="Background">
	<rect style="fill:#FFFFFF;" width="1100" height="800"/>
</g>
<g id="Shadow">
	<g style="opacity:0.5;">
		<path style="fill:#EED5D5;" d="M521.964,644.118c-28.193,0.084-56.385,0.762-84.528,3.892c-10.611,1.18-21,3.776-31.635,4.823
			c-21.244,2.092-42.107,5.993-63.426,7.793c-17.168,1.449-34.408,2.305-51.526,4.143c-16.049,1.724-33.816,1.326-49.742-1.522
			c-11.79-2.109-23.633-3.296-35.225-6.682c-12.967-3.789-27.055-6.498-40.565-6.4c-19.266,0.139-38.028,0.155-56.466,6.845
			c-6.472,2.348-14.395,6.209-19.31,11.137c-11.251,11.282-12.774,39.432-1.54,51.133c18.921,19.693,59.305,27.42,85.827,27.785
			c29.063,0.4,57.296-1.758,86.401-3.026c27.045-1.179,54.023-2.856,81.113-2.797c55.328,0.121,110.664,0,165.893-3.696
			c51.888-3.472,103.907-2.28,155.909-2.28c53.326,0,106.291,0.419,159.233,7.506c23.067,3.088,46.568,4.169,69.75,6.332
			c20.762,1.938,40.714-0.038,61.394-1.829c17.365-1.504,34.616-5.964,50.391-13.503c12.487-5.968,34.749-24.507,38.579-38.752
			c10.736-39.935-151.3-38.975-176.179-38.885c-27.831,0.101-55.884,1.016-83.693-0.045c-11.698-0.446-23.224-2.733-34.641-5.238
			c-11.372-2.495-22.83-1.861-34.362-2.91c-48.092-4.374-96.291-3.734-144.536-3.734
			C553.379,644.209,537.671,644.071,521.964,644.118z"/>
	</g>
</g>
<g id="Object">
	<g>
		<g>
			<g>
				<g>
					<g>
						<path style="fill:#D67086;" d="M142.293,298.579c21.017-4.141,25.075-26.676,25.487-29.387
							c0.031-0.184-0.004-0.352-0.088-0.522l-1.359-2.707l-4.856-9.658l-4.85-9.659l-1.359-2.709
							c-0.086-0.168-0.2-0.296-0.369-0.383c-2.419-1.288-22.925-11.49-38.794,2.896c-0.591,0.537-0.236,1.521,0.566,1.568
							c3.517,0.203,10.58,0.798,13.857,2.384c0.75,0.364,0.576,1.491-0.242,1.681c-4.678,1.099-17.11,5.096-23.473,17.388
							c-7.94,15.33-5.746,17.169-5.746,17.169l0.327-0.164l-0.327,0.164c0,0,0.183,2.863,17.207,5.645
							c13.662,2.238,24.289-5.351,27.966-8.446c0.641-0.539,1.651-0.008,1.493,0.815c-0.682,3.572-4.421,9.59-6.363,12.536
							C140.931,297.857,141.509,298.732,142.293,298.579z"/>
					</g>
					<g>
						<path style="fill:#EED5D5;" d="M149.099,288.017c14.926-2.486,17.102-19.591,17.313-21.651
							c0.016-0.142-0.013-0.272-0.079-0.403l-4.856-9.658l-4.85-9.659c-0.066-0.13-0.155-0.232-0.274-0.308
							c-1.781-1.063-16.804-9.526-27.71,0.963c-0.406,0.386-0.12,1.154,0.457,1.214c2.527,0.269,7.607,0.952,10.005,2.275
							c0.553,0.3,0.461,1.155-0.115,1.276c-3.319,0.69-12.098,3.344-16.263,12.54c-5.191,11.466-3.558,12.943-3.558,12.943
							s0.191,1.928,10.344,4.379c0.677,0.162,1.4,0.327,2.165,0.496c9.864,2.152,17.232-3.305,19.771-5.555
							c0.439-0.391,1.183,0.046,1.095,0.671c-0.373,2.711-2.858,7.193-4.154,9.381C148.102,287.422,148.542,288.106,149.099,288.017
							z"/>
					</g>
				</g>
				<g>
					<g>
						<path style="fill:#CCAF5D;" d="M205.187,303.992c19.225-12.15,25.035-33.7,26.466-40.745l-47.92,9.607
							c0.186-0.028,0.373-0.06,0.557-0.092c0.029,0.131,0.036,0.27,0.065,0.4c-0.328,12.053-7.576,29.048-11.533,36.139
							C168.104,317.765,181.989,318.654,205.187,303.992z"/>
					</g>
					<g>
						<path style="fill:#292949;" d="M168.229,252.759c-0.075-0.147-0.14-0.287-0.211-0.438l-0.026,0.013
							c-7.019-14.176-6.78-21.541-6.306-24.146c-2.831,2.715-5.741,5.514-8.757,8.408c0,0-2.577,5.826,5.147,21.253
							c7.722,15.426,13.974,16.939,13.974,16.939c4.023-0.67,7.905-1.307,11.683-1.933l0.273-0.053
							c-0.004-0.001-0.012-0.007-0.016-0.009l0.037-0.007C181.597,271.54,175.443,267.175,168.229,252.759z"/>
					</g>
					<g>
						<path style="fill:#292949;" d="M205.199,303.971c19.225-12.15,25.036-33.701,26.466-40.744l-47.921,9.608
							c0.184-0.031,0.374-0.062,0.559-0.094c0.031,0.133,0.036,0.27,0.066,0.403c-0.33,12.051-7.577,29.046-11.531,36.134
							C168.116,317.743,182.003,318.634,205.199,303.971z"/>
					</g>
					<g>
						<path style="fill:#5D66D3;" d="M276.106,242.296c4.391-3.229,8.378-6.477,12-9.705c25.339-22.572,32.773-44.184,34.706-51.715
							c-1.286-1.196-2.382-2.62-3.263-4.235l-0.033,0.017c-0.038-0.065-0.077-0.126-0.113-0.192
							c-0.055-0.108-0.122-0.207-0.175-0.317c-0.687-1.372-1.147-2.79-1.431-4.224c-6.677-2.653-23.426-7.759-48.479-5.004
							c-8.429,0.928-17.792,2.743-28.029,5.843c-16.478,4.993-29.903,12.643-43.274,22.943c-0.022-0.012-0.04-0.023-0.064-0.033
							l-23.1,20.588l-13.058,11.636c0.032,0.034,0.065,0.063,0.092,0.098c-0.065,0.065-0.136,0.128-0.201,0.193
							c-0.455,2.508-0.684,9.415,5.535,22.543c0.313,0.671,0.635,1.346,0.988,2.049c7.219,14.409,13.368,18.781,15.796,20.021
							l47.649-9.558c0-0.001,0.002-0.005,0.001-0.009l0.016-0.003c0.003-0.002,0.001-0.003,0.002-0.005
							C247.985,258.69,262.204,252.523,276.106,242.296z"/>
					</g>
					<g>
						<path style="fill:#292949;" d="M334.806,172.919c2.465-2.298,3.237-4.151,2.758-5.106c-0.021-0.045-0.072-0.078-0.102-0.118
							l-0.006,0.004c-0.422-0.612-1.509-1.001-3.244-0.971c-0.703,0.012-1.496,0.088-2.411,0.25
							c-3.265,0.585-8.772,2.531-13.829,5.008c-0.054-0.019-0.121-0.044-0.174-0.062c0.283,1.431,0.743,2.855,1.428,4.226
							c0.056,0.108,0.124,0.208,0.18,0.316c0.895,1.7,2.05,3.182,3.385,4.426c0.003-0.01,0.004-0.019,0.008-0.029
							c0.004,0.004,0.007,0.009,0.013,0.012c0.001-0.016,0.005-0.029,0.01-0.042c4.419-2.284,8.653-5.066,11.184-7.217
							C334.288,173.378,334.568,173.142,334.806,172.919z"/>
					</g>
				</g>
				<g>
					<path style="fill:#D67086;" d="M278.599,196.704c-5.824-10.645-19.121-14.832-30.126-9.328
						c-11.253,5.642-15.852,19.278-10.233,30.477c5.598,11.197,19.281,15.705,30.537,10.064c2.115-1.057,3.995-2.399,5.613-3.955
						c7.034-6.72,9.223-17.448,4.665-26.557c-0.127-0.254-0.306-0.454-0.444-0.708L278.599,196.704z"/>
				</g>
			</g>
			<g>
				<g>
					<path style="fill:#A2A4A7;" d="M319.388,176.579l-0.017-0.029c-0.01-0.016-0.02-0.033-0.029-0.05
						c-0.021-0.041-0.043-0.079-0.065-0.117l-0.011-0.02l0.122-0.072c0.028,0.047,0.056,0.094,0.082,0.144
						c0.013,0.023,0.028,0.049,0.041,0.076L319.388,176.579z"/>
				</g>
			</g>
		</g>
		<g>
			<g>
				<g>
					<g>
						<path style="fill:#292949;" d="M253.159,308.585c0,0,6.794,3.415,7.958,21.32c1.164,17.905,5.323,28.896,5.323,28.896
							s-5.343,4.032-10.272,2.296c-4.929-1.737-6.672-1.915-6.621-9.306c0.051-7.391-4.197-41.636-4.197-41.636L253.159,308.585z"/>
					</g>
				</g>
			</g>
			<g>
				<g>
					<g>
						<path style="fill:#292949;" d="M240.217,317.615c6.969,0.331,13.5,5.263,15.736,11.883c2.841-4.151,3.524-9.702,1.775-14.423
							c-1.749-4.721-5.883-8.485-10.742-9.78c-3.588,3.074-5.889,7.609-6.254,12.325L240.217,317.615z"/>
					</g>
				</g>
			</g>
			<g>
				<g>
					<polygon style="fill:#D67086;" points="231.775,359.96 210.015,367.943 194.215,382.292 193.887,317.944 174.165,321.005 
						167.634,395.259 188.654,413.042 230.954,398.667 					"/>
				</g>
			</g>
			<g>
				<g>
					<g>
						<g>
							<g>
								<polygon style="fill:#292949;" points="203.808,683.4 203.105,689.021 213.16,696.29 219.243,691.491 214.567,685.046 
									204.511,677.778 								"/>
							</g>
						</g>
					</g>
					<g>
						<g>
							<g>
								<polygon style="fill:#3B3387;" points="208.132,511.109 205.997,528.183 219.937,587.347 203.471,681.502 213.863,685.365 
									243.67,593.766 248.688,567.033 249.87,510.215 								"/>
							</g>
						</g>
					</g>
				</g>
				<g>
					<g>
						<g>
							<g>
								<polygon style="fill:#3B3387;" points="288.265,532.087 262.487,689.9 252.47,689.663 253.064,588.13 236.515,516.463 
																	"/>
							</g>
						</g>
					</g>
					<g>
						<g>
							<g>
								<polygon style="fill:#292949;" points="252.557,688.413 252.423,694.1 263.121,700.043 268.672,694.484 263.39,688.669 
																	"/>
							</g>
						</g>
					</g>
				</g>
				<g>
					<g>
						<g>
							<g>
								<path style="fill:#D67086;" d="M209.182,490.126c9.916-57.396,7.851-99.415,8.567-110.922
									c0.715-11.507,8.747-17.298,8.751-17.3c3.481-0.708,6.549-2.921,10.067-3.74c23.799-5.538,36.265,13.27,44.648,33.437
									c10.33,24.848,18.896,50.474,25.694,76.57c5.966,22.903,11.942,46.012,14.112,69.686c0.895,9.768,1.616,19.029-8.897,23.081
									c-16.752,6.456-35.391,5.867-52.966,7.649c-20.187,2.047-40.387,3.414-60.669,3.798
									C187.902,572.585,199.265,547.522,209.182,490.126z"/>
							</g>
						</g>
					</g>
				</g>
			</g>
			<g>
				<g>
					<polygon style="fill:#DDC8AC;" points="176.451,320.898 167.791,311.81 171.181,296.271 179.742,296.473 181.938,310.129 
						186.221,312.842 186.066,319.406 					"/>
				</g>
			</g>
			<g>
				<g>
					<polygon style="fill:#D67086;" points="248.054,357.253 270.618,361.817 315.886,407.726 369.813,406.985 372.441,423.673 
						309.237,433.264 258.157,398.805 					"/>
				</g>
			</g>
			<g>
				<g>
					<polygon style="fill:#FFFFFF;" points="253.612,358.588 256.335,419.938 226.308,360.971 235.544,357.916 242.133,356.108 
											"/>
				</g>
			</g>
			<g>
				<g>
					<polygon style="fill:#DDC8AC;" points="370.315,411.146 380.372,405.219 393.023,408.701 392.862,415.518 371.555,419.019 
											"/>
				</g>
			</g>
			<g>
				<g>
					<g>
						<path style="fill:#DDC8AC;" d="M255.546,323.443c-7.404-17.186-29.094-9.082-32.268,6.884
							c-1.805,9.08,2.658,25.038,13.539,25.444c0.512,1.553,1.383,4.485,2.833,5.277c1.57,0.857,5.462-1.164,6.999-1.902
							c0.426-0.205,0.867-0.439,1.12-0.839c0.316-0.501,0.14-1.613-0.124-2.829c1.172-0.347,2.339-0.852,3.488-1.537
							c4.824-2.876,7.515-8.546,7.898-14.156C259.415,334.175,257.771,328.607,255.546,323.443z"/>
					</g>
				</g>
			</g>
			<g>
				<g>
					<g>
						<path style="fill:#292949;" d="M246.545,305.346c0,0,4.338,9.248-7.493,14.731c-11.831,5.482-17.731,17.019-13.29,26.812
							c4.441,9.793,15.324,15.308,11.063,19.098c-4.262,3.791-22.707,5.075-22.707,5.075s-18.909-33.807-7.816-52.748
							S238.359,294.12,246.545,305.346z"/>
					</g>
				</g>
			</g>
		</g>
		<g>
			<g>
				<polygon style="fill:#292949;" points="343.666,679.765 342.755,686.848 356.01,695.752 364.004,689.58 357.831,681.586 
					344.576,672.682 				"/>
			</g>
			<g>
				<g>
					<polygon style="fill:#B5B7B8;" points="343.217,677.387 353.44,587.057 341.141,485.931 343.906,464.42 398.841,462.333 
						400.824,497.345 391.602,587.195 356.906,682.003 					"/>
				</g>
			</g>
			<g>
				<polygon style="fill:#292949;" points="387.424,363.833 415.607,368.92 480.742,384.41 476.603,406.239 410.015,405.235 				"/>
			</g>
			<g>
				<g>
					<polygon style="fill:#B5B7B8;" points="439.15,472.456 439.295,563.612 420.947,680.958 407.74,680.827 400.481,572.308 
						383.49,463.693 					"/>
				</g>
				<g>
					<polygon style="fill:#292949;" points="407.76,686.396 421.971,693.68 429.183,686.61 422.113,679.398 407.832,679.255 					
						"/>
				</g>
			</g>
			<g>
				<g>
					<path style="fill:#292949;" d="M331.444,510.343c-0.219-3.946-0.288-7.249-0.359-8.425c-0.642-10.581-0.624-21.196-0.22-31.793
						c0.362-9.496-0.184-32.944,0.606-42.42c0.653-7.823,3.593-27.466,6.309-34.907c6.753-18.505,4.042-19.923,40.082-28.397
						c15.795-3.714,20.449,5.925,34.531,16.245c1.389,1.018,1.907,7.757,2.362,9.513c0.802,3.094,1.641,6.179,2.561,9.242
						c0.724,2.408,1.499,4.803,2.341,7.176l-0.001-0.001c0,0,15.353,49.005,23.543,58.981c8.19,9.976,24.489,23.499,0.189,34.754
						c-4.321,1.827-8.676,3.586-13.24,4.722c0,0-20.721-0.484-31.268,0.518c-9.714,0.923-19.387,2.761-28.799,5.246
						c-6.297,1.627-12.681,3.75-18.136,7.236c-5.204,3.326-8.773,7.861-14.048,11.295c-0.5,0.325-1.049,0.665-1.652,0.634
						C333.032,529.802,331.905,518.648,331.444,510.343z"/>
				</g>
			</g>
			<g>
				<g>
					<path style="fill:#E1CFB5;" d="M377.902,368.694c-1.451,1.465-5.471,3.194-10.355,2.988c-0.984-0.041-1.857-0.677-2.166-1.612
						c-0.865-2.626-1.553-5.311-2.058-8.029c-3.619-0.025-7.935-0.444-9.659-3.626c-0.543-1.002-0.733-2.152-0.915-3.277
						c-0.751-4.652-1.503-9.304-2.255-13.956c-0.26-1.609-0.519-3.268-0.14-4.854c0.664-2.782,3.133-4.748,5.638-6.127
						c6.394-3.519,14.31-4.595,21.114-1.955c1.811,0.703,3.57,1.691,4.783,3.208c1.871,2.338,2.169,5.525,2.392,8.511
						c0.206,2.757,0.412,5.513,0.617,8.27c0.237,3.171,0.271,6.855-2.156,8.91c-1.288,1.091-3.103,1.526-4.155,2.846
						C376.733,362.318,378.268,365.74,377.902,368.694z"/>
				</g>
				<g>
					<path style="fill:#292949;" d="M402.084,311.405c0.291-1.326,0.646-2.632,1.11-3.901c1.004-2.749,2.519-5.331,3.101-8.199
						c0.582-2.868-0.036-6.273-2.476-7.891c-1.574-1.044-3.581-1.147-5.468-1.061c-6.218,0.28-12.351,2.264-17.555,5.678
						c-4.957,3.252-9.032,7.214-15.204,7.053c-5.799-0.152-9.241,1.907-13.953,5.67c-5.099,4.073-12.732,7.245-16.986,11.983
						c-1.776,1.978-2.872,4.491-3.513,7.072c-2.219,8.94,1.222,19.03,8.441,24.751c1.62,1.284,3.398,2.354,5.217,3.335
						c3.765,2.03,8.308,4.575,12.458,4.38c-1.071-3.405-7.804-12.987-6.164-16.644c2.603-5.803,12.427-7.47,17.901-8.144
						c5.97-0.735,12.285,1.499,18.092,0.444c4.178-0.76,8.575-4.449,11.245-7.662C401.625,324.3,401.023,316.246,402.084,311.405z"
						/>
				</g>
			</g>
		</g>
		<g>
			<g>
				<g id="XMLID_60_">
					<path style="fill:#666666;" d="M544.812,522.331l-0.975,18.478c-0.317,6.002-5.319,10.617-11.174,10.308l-47.346-2.499
						c-5.854-0.309-10.343-5.425-10.026-11.427l0.975-18.478L544.812,522.331z"/>
				</g>
				<g>
					<path style="fill:#8CABEF;" d="M408.828,266.362c3.431-65.005,57.614-114.989,121.02-111.642s112.025,58.758,108.594,123.763
						c-1.219,23.1-8.853,44.3-21.027,61.887l0.005,0c-34.844,53.194-44.653,98.771-44.653,98.771l-57.772-3.05l-57.772-3.05
						c0,0-4.957-46.356-34.006-102.923l0.005,0C412.968,311.347,407.609,289.462,408.828,266.362z"/>
				</g>
				<g>
					<path style="fill:#B0B0B0;" d="M574.098,439.211l-4.143,78.493c-0.173,3.279-2.845,5.804-5.967,5.639L457.091,517.7
						c-3.123-0.165-5.514-2.957-5.341-6.236l4.143-78.493L574.098,439.211z"/>
				</g>
				<g style="opacity:0.21;">
					<path style="fill:#606060;" d="M412.031,244.432c26.075,59.988,77.942,153.271,160.808,194.393
						c-0.042,0.188-0.071,0.315-0.071,0.315l-57.772-3.05l-57.772-3.049c0,0-4.957-46.356-34.006-102.923l0.005,0
						c-10.255-18.771-15.614-40.657-14.395-63.757C409.226,258.826,410.334,251.504,412.031,244.432z"/>
				</g>
				<g>
					<g>
						<path style="opacity:0.21;fill:#606060;" d="M619.17,287.173c2.996-56.752-39.45-105.127-94.806-108.049
							c-32.356-1.708-61.956,12.496-81.569,35.924c18.934-29.891,52.468-48.917,89.633-46.955
							c55.356,2.922,97.802,51.297,94.806,108.049c-1.245,23.58-10.143,44.891-24.085,61.543
							C612.416,323.055,618.186,305.822,619.17,287.173z"/>
					</g>
				</g>
				<g>
					<g>
						<polygon style="fill:#474EBB;" points="537.321,437.269 559.182,287.339 538.93,302.837 523.471,274.482 504.931,300.164 
							486.711,283.371 492.671,434.912 486.741,434.599 480.239,269.244 504.057,291.198 524.172,263.336 540.81,293.848 
							567.148,273.69 543.25,437.582 						"/>
					</g>
				</g>
				<g>
					<g>
						<path style="fill:#414BAA;" d="M545.43,422.63l-2.18,14.952l-5.93-0.313l2.693-18.469
							C541.803,420.1,543.606,421.378,545.43,422.63z"/>
					</g>
					<g>
						<path style="fill:#414BAA;" d="M490.217,372.516l2.454,62.396l-5.93-0.313l-2.73-69.424
							C486.044,367.644,488.112,370.091,490.217,372.516z"/>
					</g>
				</g>
				<g>
					<g>
						
							<rect x="506.327" y="403.644" transform="matrix(0.0527 -0.9986 0.9986 0.0527 24.3271 951.3014)" style="fill:#7F7F7F;" width="14.515" height="118.369"/>
					</g>
					<g>
						
							<rect x="504.693" y="434.6" transform="matrix(0.0527 -0.9986 0.9986 0.0527 -8.1343 978.9934)" style="fill:#7F7F7F;" width="14.515" height="118.369"/>
					</g>
				</g>
				<g>
					<g>
						<path style="fill:#8E8E8E;" d="M506.63,486.236l-53.4-2.819l0.869-16.461l32.94,1.739
							C493.602,475.308,500.164,481.12,506.63,486.236z"/>
					</g>
					<g>
						<path style="fill:#8E8E8E;" d="M454.865,452.461l1.029-19.49l1.86,0.098c5.058,7.369,10.209,14.14,15.408,20.358
							L454.865,452.461z"/>
					</g>
					<g>
						<path style="fill:#8E8E8E;" d="M563.987,523.343L457.091,517.7c-3.123-0.165-5.514-2.957-5.341-6.236l0.715-13.552
							l77.182,4.074c15.224,8.887,29.078,14.115,40.029,17.189C568.912,521.7,566.619,523.482,563.987,523.343z"/>
					</g>
					<g>
						<path style="fill:#666666;" d="M487.04,468.695l-32.94-1.739l0.765-14.495l18.296,0.966
							C477.764,458.932,482.401,464.019,487.04,468.695z"/>
					</g>
					<g>
						<path style="fill:#666666;" d="M529.648,501.986l-77.182-4.074l0.765-14.495l53.4,2.819
							C514.507,492.468,522.239,497.661,529.648,501.986z"/>
					</g>
				</g>
				<g>
					<path style="fill:#4E4E4E;" d="M475.673,529.935c12.637,13.865,37.965,19.194,46.352,20.62l-36.708-1.938
						c-5.855-0.309-10.343-5.425-10.026-11.427L475.673,529.935z"/>
				</g>
			</g>
			<g>
				<path style="fill:#474EBB;" d="M529.254,137.349l-3.066-0.087c-1.681-0.048-3.006-1.449-2.958-3.13l0.881-31.216
					c0.047-1.681,1.449-3.006,3.13-2.958l3.066,0.086c1.681,0.048,3.006,1.449,2.958,3.13l-0.881,31.216
					C532.337,136.072,530.935,137.397,529.254,137.349z"/>
			</g>
			<g>
				<path style="fill:#474EBB;" d="M478.12,142.88l-2.991,1.779c-1.348,0.802-3.09,0.359-3.891-0.988l-16.177-27.194
					c-0.802-1.348-0.359-3.09,0.988-3.891l2.991-1.779c1.348-0.802,3.09-0.359,3.891,0.988l16.177,27.194
					C479.91,140.337,479.467,142.079,478.12,142.88z"/>
			</g>
			<g>
				<path style="fill:#474EBB;" d="M578.46,145.859l2.432,1.64c1.425,0.961,3.36,0.584,4.32-0.841l17.38-25.785
					c0.961-1.425,0.584-3.36-0.841-4.32l-2.432-1.639c-1.425-0.961-3.36-0.584-4.32,0.841l-17.38,25.785
					C576.658,142.964,577.035,144.899,578.46,145.859z"/>
			</g>
		</g>
		<g>
			<g>
				<path style="fill:#E1CFB5;" d="M461.822,423.916l16.289,0.878l9.52-10.964l-5.194-4.34l-10.906,3.829l-3.055-2.083
					l-11.101,4.255C457.374,415.49,462.042,423.917,461.822,423.916z"/>
			</g>
			<g>
				<polygon style="fill:#292949;" points="360.722,378.364 414.733,424.306 460.911,413.63 467.961,426.985 413.93,451.706 
					395.83,446.094 349.312,400.616 				"/>
			</g>
		</g>
		<g>
			<g>
				<g>
					<path style="fill:#D67086;" d="M982.942,190.287c0.042-17.742-14.302-32.162-32.045-32.211
						c-2.396-0.007-5.993,1.291-8.196,0.011c-1.839-1.069-2.52-3.616-3.932-5.116c-1.724-1.83-3.694-3.427-5.842-4.733
						c-4.331-2.634-9.351-4.036-14.419-4.05c-4.14-0.011-8.069,0.882-11.608,2.488c-0.02,0.009-0.038,0.02-0.059,0.028
						c-0.001,0-0.012,0.004-0.015,0.006c-0.225,0.103-0.448,0.208-0.67,0.317c-0.01-0.009-0.02-0.018-0.03-0.027
						c-2.845,1.253-13.285,6.646-14.146,18.5c6.148-0.197,12.322,2.174,16.777,6.974c4.522-4.432,11.039-6.382,17.269-5.096
						c5.002,1.032,9.303,3.951,12.11,8.218c2.807,4.267,3.785,9.372,2.753,14.374c-0.094,0.453-0.493,0.764-0.938,0.763
						c-0.063,0-0.127-0.007-0.192-0.02c-0.517-0.107-0.85-0.612-0.743-1.13c1.918-9.293-4.083-18.414-13.376-20.332
						c-5.924-1.223-12.134,0.799-16.211,5.273c-0.355,0.39-0.96,0.418-1.351,0.063c-0.05-0.046-0.094-0.095-0.132-0.148
						c-7.128-8.392-19.751-9.438-28.161-2.323c-0.403,0.341-1.006,0.291-1.348-0.113c-0.341-0.403-0.291-1.007,0.112-1.348
						c3.385-2.863,7.394-4.515,11.498-5.01c0.728-12.124,10.544-18.095,14.508-20.022c-6.618-5.501-15.113-8.824-24.391-8.85
						c-13.726-0.038-25.781,7.141-32.591,17.96c-2.289-0.503-4.664-0.778-7.104-0.784c-11.995-0.033-23.321,6.571-29.215,17.017
						c-1.487,2.634-2.473,5.39-3.282,8.291c-0.109,0.391-0.24,0.741-0.389,1.06c6.902-2.565,16.528-4.469,27.085-1.562
						c0.509,0.14,0.808,0.666,0.668,1.176c-0.14,0.509-0.665,0.808-1.176,0.668c-22.007-6.06-40.203,9.567-40.384,9.726
						c-0.138,0.121-0.301,0.194-0.469,0.223c-2.365,1.858-4.545,3.936-6.4,6.395c-5.508,7.299-8.522,16.297-8.547,25.439
						c-0.065,23.472,18.909,42.552,42.381,42.617c2.646,0.007,5.457-1.494,8.028-0.62c-1.385-3.812-2.16-8.593-0.599-13.625
						c0.156-0.504,0.692-0.787,1.196-0.63c0.505,0.156,0.786,0.692,0.63,1.197c-3.223,10.393,4.842,20.067,4.923,20.164
						c0.099,0.117,0.162,0.252,0.196,0.392c1.41,1.759,2.939,3.139,4.977,4.395c5.547,3.418,12.026,5.274,18.543,5.292
						c5.519,0.015,10.745-1.235,15.409-3.472c0.055-0.051,0.115-0.098,0.183-0.136c14.26-7.988,16.388-23.789,16.408-23.947
						c0.065-0.524,0.54-0.897,1.066-0.831c0.524,0.065,0.896,0.542,0.831,1.066c-0.076,0.611-1.796,13.532-12.842,22.339
						c6.612,7.62,16.35,12.458,27.232,12.488c5.296,0.015,10.797-1.525,15.809-3.483c5.286-2.065,9.121,5.79,11.13,9.171
						c2.958,4.978,4.566,11.1,8.784,15.256c6.08,5.991,12.678,0.663,13.395-6.665c0.411-4.19,0.296-8.406-0.194-12.584
						c-0.241-2.056-0.668-4.422,0.266-6.373c1.116-2.332,3.243-1.964,5.467-2.489c4.271-1.007,8.297-2.979,11.719-5.724
						c6.959-5.582,11.098-14.16,11.123-23.082c0.01-3.454-0.58-6.768-1.656-9.855c-1.455,0.625-4.424,1.671-8.5,1.947
						c-0.638,0.043-1.32,0.068-2.041,0.065c-5.263-0.015-12.622-1.435-20.727-7.18c-0.431-0.305-0.532-0.902-0.227-1.333
						c0.306-0.431,0.902-0.532,1.333-0.227c16.707,11.842,30.106,4.653,30.239,4.579c0.088-0.049,0.18-0.077,0.274-0.096
						c9.485-4.448,16.067-14.068,16.098-25.239C999.244,204.462,992.569,194.722,982.942,190.287z M876.915,238.512
						c-0.105,0.036-0.211,0.053-0.316,0.053c-0.395-0.001-0.764-0.249-0.901-0.643c-3.653-10.526-15.11-16.16-25.655-12.689
						c-0.042,0.018-0.088,0.03-0.133,0.042c-0.061,0.02-0.122,0.037-0.182,0.058c-0.498,0.173-1.044-0.091-1.217-0.59
						c-0.095-0.274-0.055-0.559,0.08-0.792c-1.94-8.315-8.088-15.155-16.176-17.936c-12.995-4.468-27.205,2.469-31.673,15.465
						c-0.172,0.499-0.715,0.766-1.215,0.593c-0.5-0.172-0.765-0.716-0.593-1.215c4.811-13.993,20.11-21.464,34.104-16.652
						c8.583,2.951,15.137,10.148,17.323,18.926c11.272-3.186,23.253,2.953,27.143,14.161
						C877.678,237.794,877.414,238.339,876.915,238.512z M956.511,217.808c-0.332,0.41-0.934,0.474-1.345,0.142
						c-4.701-3.805-10.602-5.551-16.619-4.918c-6.015,0.634-11.423,3.572-15.229,8.274c-3.805,4.702-5.552,10.604-4.918,16.618
						c0.055,0.525-0.326,0.996-0.851,1.051c-0.035,0.004-0.07,0.005-0.104,0.005c-0.482-0.001-0.895-0.366-0.947-0.856
						c-0.687-6.523,1.207-12.924,5.334-18.022c4.126-5.098,9.991-8.285,16.514-8.972c6.523-0.688,12.924,1.207,18.022,5.333
						C956.78,216.796,956.844,217.398,956.511,217.808z"/>
				</g>
			</g>
		</g>
		<g>
			<g>
				<g>
					<g>
						<polygon style="fill:#A39372;" points="747.496,374.658 737.348,367.797 740.091,363.332 748.081,366.491 748.398,363.777 
							756.367,370.706 754.142,375.733 						"/>
					</g>
				</g>
				<g>
					<g>
						<polygon style="fill:#3B3387;" points="846.498,359.774 806.298,385.815 754.455,367.455 750.55,377.655 806.954,412.897 
							863.301,392.093 						"/>
					</g>
				</g>
			</g>
			<g id="XMLID_55_">
				<g id="XMLID_59_">
					<g>
						<polygon style="fill:#292949;" points="847.329,680.349 847.329,686.099 832.585,693.471 825.213,686.099 832.585,678.727 
							833.536,678.727 833.773,680.349 						"/>
					</g>
				</g>
				<g id="XMLID_58_">
					<g>
						<polygon style="fill:#292949;" points="847.329,680.349 833.773,680.349 833.536,678.727 847.329,678.727 						"/>
					</g>
				</g>
				<g>
					<g>
						<path style="fill:#3B3387;" d="M867.835,355.724c15.846,0.953,32.087,9.262,36.634,24.689c0.375,1.271,0.667,2.57,0.772,3.891
							c0.634,7.926-1.787,13.781,0.5,21.742c1.987,6.917,3.788,13.937,5.11,21.015c1.914,10.245,3.681,20.442,5.073,30.613
							c1.541,11.264,2.628,22.495,2.942,33.66c0.035,1.234,0.284,4.686,0.423,8.81c0.292,8.637,0.105,20.19-3.532,20.622
							c-0.681,0.081-1.338-0.221-1.937-0.511c-4.678-2.273-8.364-5.24-12.489-7.833c-1.451-0.911-2.954-1.777-4.576-2.55
							c-3.25-1.547-6.721-2.727-10.282-3.66c5.987,0.312,6.732-0.797,6.732-0.797s-5.401-21.694-9.194-40.565
							c-1.955-9.726-3.482-18.702-3.622-23.57c-0.421-14.641-2.295-62.996-2.295-62.996l-9.088-18.496l-1.678,0.016
							c0.121-0.014,0.241-0.029,0.362-0.043C867.521,358.18,867.593,356.87,867.835,355.724z"/>
					</g>
					<g>
						<path style="fill:#3B3387;" d="M800.426,511.154c0.93-9.588,1.896-19.174,3.076-28.735
							c2.353-19.07,5.555-38.095,10.974-56.555c2.07-7.052,4.458-14.007,6.845-20.958c2.907-8.466,5.814-16.931,8.721-25.396
							c3.613-10.521,9.71-17.933,20.387-21.613c1.907-0.657,3.914-1.165,5.983-1.536c0.05,0.218,0.097,0.438,0.125,0.67
							c0.124,1.01,0.413,2.131,1.052,2.864l-7.008,0.067c0,0-19.771,69.095-20.498,81.003c-0.276,4.527-1.194,14.409-2.217,24.819
							c-1.617,16.475-3.494,34.274-3.494,34.274s8.68,0.205,21.237,1.141c-0.929-0.022-1.858-0.046-2.786-0.054
							c-8.734-0.077-17.793,3.633-26.155,6.039c-0.601,0.173-1.199,0.34-1.792,0.497c-3.407,0.904-6.178,3.387-9.008,5.334
							C801.689,515.891,799.856,517.03,800.426,511.154z"/>
					</g>
				</g>
				<g>
					<g>
						<path style="fill:#3B3387;" d="M816.669,504.75c8.362-2.405,17.421-6.116,26.155-6.039c0.928,0.008,1.857,0.033,2.785,0.054
							c0.777,0.058,1.569,0.119,2.375,0.182c5.853,0.463,12.429,1.081,19.294,1.901c0.337,0.04,0.673,0.079,1.011,0.121
							c8.781,1.879,14.482,2.614,18.184,2.807c3.561,0.934,7.032,2.113,10.281,3.66c1.622,0.772,3.126,1.639,4.576,2.55l0.046,9.382
							l-16.741,159.358H870.91v1.623h-0.079l-15.092-106.891l-0.063-0.602l-8.269,107.492h-0.079v-1.623h-13.793l-17.495-119.7
							L816.669,504.75z"/>
					</g>
				</g>
				<g id="XMLID_57_">
					<g>
						<polygon style="fill:#292949;" points="884.636,678.727 885.654,678.727 893.026,686.099 885.654,693.471 870.91,686.099 
							870.91,680.349 884.466,680.349 						"/>
					</g>
				</g>
				<g id="XMLID_56_">
					<g>
						<polygon style="fill:#292949;" points="884.636,678.727 884.466,680.349 870.91,680.349 870.91,678.727 						"/>
					</g>
				</g>
				<g>
					<g>
						<path style="fill:#FFFFFF;" d="M824.373,500.058c0,0,8.68,0.205,21.237,1.142c0.777,0.058,1.569,0.119,2.375,0.183
							c5.853,0.463,12.428,1.081,19.293,1.901c0.337,0.04,0.673,0.079,1.011,0.121c8.781,1.879,14.482,2.614,18.184,2.807
							c5.987,0.312,6.732-0.797,6.732-0.797s-5.401-21.695-9.194-40.565c-1.955-9.726-3.482-18.702-3.622-23.57
							c-0.421-14.641-2.295-62.996-2.295-62.996l-9.088-18.496l-1.678,0.016c-2.317,0.274-4.633,0.548-6.95,0.822
							c-0.599,0.071-1.22,0.139-1.792-0.049c-0.288-0.095-0.537-0.243-0.754-0.431c-0.087-0.076-0.167-0.161-0.244-0.25
							l-7.008,0.067c0,0-19.771,69.095-20.498,81.003c-0.276,4.527-1.195,14.409-2.217,24.819
							C826.249,482.259,824.373,500.058,824.373,500.058z"/>
					</g>
				</g>
				<g>
					<g>
						<path style="fill:#E1CFB5;" d="M845.316,334.342c0.456-1.865-0.419-3.764-0.833-5.639c-0.105-0.474-0.124-0.963-0.095-1.458
							c3.33-0.576,6.691-1.812,9.138-2.881c5.095-2.224,15.017-4.593,20.307-1.966c4.183,2.077,2.898,8.7,2.688,12.889
							c-0.054,1.077-0.137,2.174,0.111,3.22c0.255,1.078,0.926,1.806,1.344,2.713c-0.466,1.632-1.23,3.181-2.474,4.586
							c-3.352,3.785-6.763,5.646-7.666,9.917c-0.242,1.146-0.315,2.456-0.145,4.035c-0.121,0.014-0.241,0.029-0.362,0.043
							c-2.317,0.274-4.633,0.548-6.95,0.822c-0.599,0.071-1.22,0.139-1.792-0.049c-0.288-0.095-0.537-0.243-0.754-0.431
							c-0.087-0.076-0.167-0.161-0.244-0.25c-0.639-0.733-0.928-1.853-1.052-2.864c-0.028-0.232-0.074-0.453-0.125-0.67
							c-0.906-3.899-5.213-5.654-7.533-9.113c-2.63-3.92-4.006-8.487-4.602-13.138c-0.01-0.079-0.02-0.159-0.03-0.238
							C844.587,334.057,844.943,334.216,845.316,334.342z"/>
					</g>
				</g>
				<g>
					<g>
						<path style="fill:#292949;" d="M828.666,312.228c-0.151,4.801,3.477,12.599,7.939,14.556c0.867,0.38,1.827,0.604,2.841,0.711
							c0.938,2.603,2.509,5.123,4.802,6.377c0.34,0.186,0.696,0.344,1.069,0.471c0.456-1.865-0.419-3.764-0.833-5.639
							c-0.105-0.474-0.124-0.963-0.095-1.458c3.33-0.576,6.691-1.812,9.138-2.881c5.095-2.224,15.017-4.593,20.307-1.966
							c4.183,2.077,2.898,8.7,2.688,12.889c-0.054,1.077-0.137,2.174,0.111,3.22c0.255,1.078,0.926,1.806,1.344,2.713
							c0.146,0.316,0.262,0.654,0.318,1.036c3.425-1.537,5.497-5.4,7.432-8.54c0.967-1.57,1.872-3.21,2.585-4.993
							c3.182-7.967,2.009-18.707-2.876-26.345c-1.41-2.205-3.128-4.184-5.148-5.416c-4.836-2.95-11.568-3.221-16.778-5.244
							c-7.328-2.845-11.053-0.28-17.972,1.943c-2.766,0.888-5.945,1.659-7.41,4.28c-0.809,1.447-0.929,3.233-1.745,4.676
							c-1.052,1.859-3.048,2.828-4.779,3.998C829.593,307.972,828.736,309.98,828.666,312.228z"/>
					</g>
				</g>
			</g>
			<g>
				<g>
					<g>
						<polygon style="fill:#E1CFB5;" points="958.599,308.288 960.393,296.171 955.248,295.178 952.182,303.204 949.966,301.605 
							949.694,312.162 954.904,313.916 						"/>
					</g>
				</g>
				<g>
					<g>
						<polygon style="fill:#3B3387;" points="880.762,371.25 927.116,359.19 948.588,308.556 958.747,312.565 946.646,377.964 
							893.248,405.469 						"/>
					</g>
				</g>
			</g>
		</g>
		<g>
			<g>
				<g>
					<g>
						<g>
							<polygon style="fill:#292949;" points="769.572,682.218 770.219,688.588 758.127,696.252 751.11,690.53 756.833,683.513 
								768.924,675.849 							"/>
						</g>
						<g>
							<polygon style="fill:#292949;" points="770.039,487.91 772.006,507.255 754.733,593.703 770.03,680.098 757.652,683.909 
								717.63,581.187 715.435,549.784 720.855,484.731 							"/>
						</g>
					</g>
					<g>
						<g>
							<polygon style="fill:#292949;" points="676.232,494.496 675.835,576.219 691.941,681.478 703.782,681.398 710.608,584.129 
								726.159,486.802 							"/>
						</g>
						<g>
							<polygon style="fill:#292949;" points="703.747,686.392 690.986,692.88 684.541,686.521 690.9,680.076 703.704,679.99 
															"/>
						</g>
					</g>
				</g>
				<g>
					<g>
						<path style="fill:#DDDAE8;" d="M666.254,482.502c8.542-26.461,9.452-54.246,11.937-81.81
							c0.737-8.133,1.519-16.445,4.904-23.876c3.887-8.533,10.314-13.037,17.801-15.497c9.53-3.132,20.776-2.952,30.684-3.555
							c9.401-0.296,17.718,35.046,27.308,52.177c5.877,10.499,11.933,19.785,15.897,31.238c3.805,10.992,7.458,22.176,9.672,33.613
							c3.342,17.267,11.89,29.323,3.726,35.197c-0.748,0.247-1.469,0.493-2.153,0.738c-13.391,4.797-27.246,8.347-41.355,10.209
							c-12.516,1.652-25.227,1.953-37.794,0.714c-17.203-1.696-33.87-4.126-49.036-13.097
							C660.648,499.869,663.451,491.186,666.254,482.502z"/>
					</g>
				</g>
			</g>
		</g>
		<g>
			<g>
				
					<rect x="646.719" y="310.812" transform="matrix(-0.8944 0.4473 -0.4473 -0.8944 1469.1849 493.5409)" style="fill:#474EBB;" width="59.221" height="218.798"/>
			</g>
			<g>
				<polygon style="fill:#E1CFB5;" points="653.881,309.121 603.745,275.067 600.914,335.609 				"/>
			</g>
			<g>
				<polygon style="fill:#292949;" points="622.556,287.844 603.745,275.067 602.683,297.783 				"/>
			</g>
			<g>
				<path style="fill:#B5B7B8;" d="M719.029,554.195l39.325-19.666c3.767-1.884,5.294-6.465,3.41-10.232l-10.02-19.484
					l-52.967,26.488l10.02,19.484C710.681,554.552,715.262,556.079,719.029,554.195z"/>
			</g>
			<g>
				<polygon style="fill:#FFFFFF;" points="698.777,531.301 751.744,504.813 746.79,494.908 693.617,520.984 				"/>
			</g>
		</g>
		<g>
			<g>
				<g>
					<polygon style="fill:#A39372;" points="734.53,465.065 724.922,473.599 721.095,469.651 726.381,462.35 723.705,461.323 
						732.816,455.022 737.348,458.589 					"/>
				</g>
			</g>
			<g>
				<g>
					<polygon style="fill:#DDDAE8;" points="737.048,393.279 753.641,413.085 729.016,456.122 738.369,462.739 788.834,414.56 
						749.569,358.892 					"/>
				</g>
			</g>
		</g>
		<g>
			<g>
				<path style="fill:#A39372;" d="M736.18,331.459c-5.356-16.169-28.952-21.799-34.437-3.008
					c-1.648,5.647-2.641,11.638-1.52,17.413c1.121,5.775,4.65,11.316,10.036,13.683c0.031,0.014,0.062,0.025,0.092,0.038
					c-0.21,1.499-0.421,2.997-0.631,4.496c-0.045,0.322-0.083,0.677,0.098,0.947c0.206,0.307,0.615,0.388,0.982,0.443
					c1.789,0.267,3.578,0.534,5.367,0.801c0.887,0.132,1.811,0.262,2.664-0.011c1.869-0.598,2.646-2.839,2.728-4.799
					c0.02-0.469,0.015-0.943,0.008-1.417C732.156,356.417,739.68,342.029,736.18,331.459z"/>
			</g>
			<g>
				<g>
					<path style="fill:#292949;" d="M707.432,303.85c-4.32-0.643-8,3.547-11.986,5.747c-3.316,1.83-7.076,2.315-10.514,3.832
						c-3.438,1.517-6.816,4.683-6.888,8.646c-3.483-1.813-7.257-3.672-11.16-2.92c-3.903,0.752-7.527,5.412-5.971,9.253
						c1.393,3.44,5.88,4.25,7.373,7.636c2.362,5.356-4.023,13.674,0.334,17.226c1.047,0.854,2.473,1.06,3.502,1.939
						c1.279,1.092,1.689,2.968,2.258,4.635c2.58,7.558,10.198,12.495,17.724,11.485c4.679-2.192,8.41-6.721,10.082-11.906
						c2.015-6.249-1.329-8.431-1.893-14.297c-0.617-6.411,1.422-13.201,5.459-18.179c2.627-3.24,6.385-6.033,10.357-6.411
						c1.615-0.154,1.107,1.193,2.923-0.056c0.78-0.536,1.843-2.564,2.065-3.536C716.749,313.449,713.116,304.696,707.432,303.85z"/>
				</g>
				<g>
					<path style="fill:#292949;" d="M754.161,312.163c2.229,0.62,4.649,0.53,6.772,1.461c3.19,1.399,2.996,4.708,3.899,7.584
						c0.999,3.184,2.453,7.458,4.552,9.934c1.513,1.784,3.631,2.802,5.475,4.178c1.843,1.377,3.538,3.41,3.499,5.891
						c-0.037,2.352-1.618,4.463-1.85,6.811c-0.282,3.501,0.324,5.294-0.756,8.873c-0.557,1.846-1.18,3.802-2.566,5.061
						c-1.826,1.66-4.428,1.628-6.713,1.246c-2.284-0.382-4.646-1.016-6.899-0.258c-4.886,1.643-3.974,6.585-5.274,10.727
						c-1.979,6.302-9.287,9.981-14.878,7.74c-4.74-1.9-7.484-7.405-7.27-12.838c0.107-2.72,1.19-5.255,1.269-7.978
						c0.076-2.626-1.404-6.263,0.975-8.346c0.58-0.508,1.323-0.775,1.844-1.354c0.421-0.467,0.655-1.095,0.801-1.721
						c0.507-2.17,0.029-4.537-1.25-6.199c-0.92-1.194-2.237-2.067-2.801-3.508c-0.646-1.651-0.135-3.581-0.025-5.406
						c0.264-4.41-2.148-8.735-5.822-10.438c-2.421-1.122-4.602-1.784-6.718-3.491c-0.322-0.26-5.137-4.514-5.261-3.595
						c0.216-1.6,1.15-3,2.097-4.284c1.556-2.111,3.284-4.167,5.475-5.431c7.086-4.088,7.428,5.413,13.117,4.163
						c1.372-0.301,2.405-1.559,3.64-2.31c2.333-1.418,5.198-0.911,7.584,0.152C749.464,309.89,751.65,311.464,754.161,312.163z"/>
				</g>
			</g>
		</g>
		<g>
			<polygon style="fill:#A39372;" points="660.543,460.265 667.527,458.773 676.282,465.479 669.668,473.196 663.052,467.788 			"/>
		</g>
	</g>
	<g>
		<path style="fill:#292949;" d="M125.644,215.089c7.985,1.072,25.713,5.386,35.612,12.245c0.172,0.197,0.364,0.371,0.538,0.562
			l36.158-32.224c-6.263-2.993-27.197-11.506-48.666-3.312C123.644,202.147,116.041,213.799,125.644,215.089z"/>
	</g>
</g>
</svg>
